HIERARCHY
ROOT Hips
{
	OFFSET -32.860001 56.121803 44.745396
	CHANNELS 6 Xposition Yposition Zposition Zrotation Xrotation Yrotation
	JOINT Chest
	{
		OFFSET -0.637402 0.831600 5.390099
		CHANNELS 6 Xposition Yposition Zposition Zrotation Xrotation Yrotation
		JOINT Chest2
		{
			OFFSET 0.000000 0.000000 4.429901
			CHANNELS 6 Xposition Yposition Zposition Zrotation Xrotation Yrotation
			JOINT Neck
			{
				OFFSET 0.000000 0.000000 10.301395
				CHANNELS 6 Xposition Yposition Zposition Zrotation Xrotation Yrotation
				JOINT Head
				{
					OFFSET 0.000000 0.000000 2.173897
					CHANNELS 6 Xposition Yposition Zposition Zrotation Xrotation Yrotation
					End Site
					{
						OFFSET 0.000000 0.000000 8.298004
					}
				}
			}
			JOINT LeftCollar
			{
				OFFSET 2.142401 -0.572701 5.717800
				CHANNELS 6 Xposition Yposition Zposition Zrotation Xrotation Yrotation
				JOINT LeftShoulder
				{
					OFFSET 5.674000 0.000000 0.000000
					CHANNELS 6 Xposition Yposition Zposition Zrotation Xrotation Yrotation
					JOINT LeftElbow
					{
						OFFSET 0.000000 0.000000 -12.238701
						CHANNELS 6 Xposition Yposition Zposition Zrotation Xrotation Yrotation
						JOINT LeftWrist
						{
							OFFSET 0.000000 0.000000 -10.253700
							CHANNELS 6 Xposition Yposition Zposition Zrotation Xrotation Yrotation
							End Site
							{
								OFFSET 0.000000 0.000000 -2.173901
							}
						}
					}
				}
			}
			JOINT RightCollar
			{
				OFFSET -2.882599 -1.580101 6.695801
				CHANNELS 6 Xposition Yposition Zposition Zrotation Xrotation Yrotation
				JOINT RightShoulder
				{
					OFFSET -4.235600 0.000000 0.000000
					CHANNELS 6 Xposition Yposition Zposition Zrotation Xrotation Yrotation
					JOINT RightElbow
					{
						OFFSET 0.000000 0.000000 -10.709900
						CHANNELS 6 Xposition Yposition Zposition Zrotation Xrotation Yrotation
						JOINT RightWrist
						{
							OFFSET 0.000000 0.000000 -11.716801
							CHANNELS 6 Xposition Yposition Zposition Zrotation Xrotation Yrotation
							End Site
							{
								OFFSET 0.000000 0.000000 -2.173901
							}
						}
					}
				}
			}
		}
	}
	JOINT LeftHip
	{
		OFFSET 2.279499 0.210400 -2.475502
		CHANNELS 6 Xposition Yposition Zposition Zrotation Xrotation Yrotation
		JOINT LeftKnee
		{
			OFFSET 0.000000 -0.000004 -20.742800
			CHANNELS 6 Xposition Yposition Zposition Zrotation Xrotation Yrotation
			JOINT LeftAnkle
			{
				OFFSET 0.000000 0.000000 -16.666000
				CHANNELS 6 Xposition Yposition Zposition Zrotation Xrotation Yrotation
				End Site
				{
					OFFSET 0.000000 -8.310898 0.000000
				}
			}
		}
	}
	JOINT RightHip
	{
		OFFSET -1.961899 0.232300 -2.727402
		CHANNELS 6 Xposition Yposition Zposition Zrotation Xrotation Yrotation
		JOINT RightKnee
		{
			OFFSET 0.000000 -0.000004 -20.526800
			CHANNELS 6 Xposition Yposition Zposition Zrotation Xrotation Yrotation
			JOINT RightAnkle
			{
				OFFSET 0.000000 0.000000 -16.867300
				CHANNELS 6 Xposition Yposition Zposition Zrotation Xrotation Yrotation
				End Site
				{
					OFFSET 0.000000 -7.186401 0.000000
				}
			}
		}
	}
}
MOTION
Frames: 6
Frame Time: 0.041667
73.915405 -26.001122 18.476688 2136.291053 -0.873503 18.401081 -0.637400 0.831599 5.390098 -7.684477 4.123334 -6.006629 0.000009 0.000000 4.429906 4.485125 -5.839454 -0.511150 -0.000005 0.000006 10.301392 316.131617 3.741894 0.888111 -0.000001 0.000003 2.173891 -361.373780 -2.050106 -5.308693 2.142390 -0.572699 5.717799 2.111560 -8.155044 -26.553055 5.674005 0.000002 0.000000 495.193359 -497.554146 51.218134 -0.000007 -0.000001 -12.238689 388.463020 -21.528929 2.124506 0.000004 -0.000011 -10.253701 373.088428 0.920891 -28.946728 -2.882598 -1.580095 6.695795 -14.038165 -6.799555 -9.691793 -4.235608 -0.000000 -0.000006 -1611.453525 181.521115 -445.650500 0.000000 0.000002 -10.709909 423.037492 -134.347021 33.437611 0.000000 0.000003 -11.716801 -579.330307 -10.506468 -47.184371 2.279486 0.210402 -2.475508 461.870560 -46.629729 61.826633 -0.000002 -0.000003 -20.742802 -679.877412 198.964681 -18.821720 -0.000002 -0.000003 -16.665997 811.740881 28.029020 57.589812 -1.961895 0.232299 -2.727400 -873.702663 -19.517735 -97.709176 0.000003 -0.000013 -20.526802 705.002509 151.986981 -278.824660 -0.000010 0.000001 -16.867302 -18.936385 36.163140 -18.745516
73.948715 -26.008301 18.479490 2136.211932 -0.827968 18.450363 -0.637404 0.831595 5.390100 -7.914790 4.118600 -6.039727 -0.000009 -0.000003 4.429902 4.641438 -5.829011 -0.515089 0.000007 -0.000003 10.301402 316.439222 3.806505 0.844550 -0.000005 0.000000 2.173900 -361.452491 -2.040705 -5.242390 2.142410 -0.572699 5.717812 2.159557 -8.376558 -26.594100 5.674008 -0.000002 0.000010 495.603772 -497.989748 51.663964 -0.000007 -0.000010 -12.238694 388.091868 -21.558425 1.909878 -0.000002 0.000001 -10.253706 373.572634 0.866959 -28.984208 -2.882594 -1.580096 6.695800 -13.676808 -6.492073 -9.631648 -4.235619 -0.000003 -0.000003 -1611.478114 181.771155 -445.554386 -0.000004 0.000000 -10.709900 423.253135 -134.418205 33.714480 -0.000010 -0.000004 -11.716802 -579.149334 -10.525367 -46.985086 2.279497 0.210396 -2.475502 461.686036 -46.817276 61.745921 -0.000002 -0.000002 -20.742802 -679.721520 198.868375 -18.859909 -0.000005 0.000005 -16.665998 811.599796 28.017629 57.471165 -1.961904 0.232293 -2.727401 -873.583599 -19.584533 -97.678822 0.000002 -0.000012 -20.526806 704.873992 151.799288 -278.754008 -0.000001 0.000005 -16.867302 -18.807795 36.285011 -18.615322
73.984711 -26.018600 18.483486 2136.180896 -0.754889 18.474554 -0.637405 0.831602 5.390100 -8.098400 4.085557 -6.066196 0.000002 -0.000003 4.429903 4.734240 -5.823304 -0.517495 -0.000006 0.000006 10.301399 316.662487 3.856059 0.841731 -0.000001 0.000001 2.173899 -361.511859 -2.037973 -5.192487 2.142397 -0.572692 5.717807 2.147426 -8.451396 -26.560176 5.674006 -0.000002 -0.000004 495.808240 -498.233504 51.824176 -0.000001 -0.000012 -12.238720 387.471823 -21.560049 1.680339 0.000002 -0.000013 -10.253696 374.146315 0.794403 -29.033700 -2.882603 -1.580095 6.695801 -13.417857 -6.267942 -9.567196 -4.235611 0.000005 -0.000002 -1611.450356 181.983465 -445.475921 0.000004 0.000004 -10.709894 423.344796 -134.397591 33.840066 0.000000 0.000006 -11.716800 -579.171300 -10.533334 -46.980107 2.279495 0.210402 -2.475502 461.431680 -46.980135 61.655674 0.000002 -0.000001 -20.742809 -679.564426 198.769297 -18.912683 -0.000000 0.000002 -16.665998 811.450242 28.008459 57.360892 -1.961893 0.232298 -2.727402 -873.534640 -19.643885 -97.675175 -0.000001 -0.000006 -20.526810 704.756295 151.585817 -278.683958 -0.000001 -0.000002 -16.867300 -18.646555 36.413839 -18.469907
74.019699 -26.029404 18.490387 2136.181333 -0.655514 18.472083 -0.637415 0.831597 5.390094 -8.167696 4.015974 -6.084484 -0.000000 -0.000004 4.429902 4.734307 -5.816045 -0.517100 -0.000019 -0.000002 10.301401 316.777152 3.882525 0.878448 -0.000011 -0.000002 2.173898 -361.544726 -2.048310 -5.169780 2.142377 -0.572706 5.717804 2.074796 -8.359409 -26.451296 5.674008 -0.000005 0.000008 495.734146 -498.215308 51.641623 -0.000007 -0.000012 -12.238695 387.199463 -21.520521 1.677309 -0.000001 -0.000005 -10.253702 374.203907 0.707579 -29.102364 -2.882607 -1.580097 6.695793 -13.416232 -6.243719 -9.552019 -4.235614 0.000003 -0.000000 -1611.252335 181.942757 -445.392182 0.000002 0.000004 -10.709898 423.272260 -134.297543 33.843020 -0.000002 -0.000007 -11.716797 -579.365933 -10.559661 -47.126079 2.279484 0.210396 -2.475502 461.236172 -47.041627 61.629924 -0.000002 0.000003 -20.742805 -679.473612 198.696500 -18.969727 -0.000004 -0.000005 -16.665997 811.317081 28.004853 57.268698 -1.961917 0.232297 -2.727396 -873.538957 -19.669804 -97.687128 0.000003 -0.000011 -20.526802 704.657503 151.383575 -278.602296 -0.000003 0.000001 -16.867304 -18.486274 36.535983 -18.316307
74.054825 -26.040390 18.499693 2136.208872 -0.581675 18.433169 -0.637393 0.831598 5.390103 -8.124817 3.984476 -6.045660 0.000003 0.000002 4.429904 4.676841 -5.828527 -0.516350 -0.000011 0.000006 10.301398 316.749832 3.903163 0.927957 -0.000006 -0.000001 2.173899 -361.531229 -2.058067 -5.160799 2.142387 -0.572695 5.717798 1.953014 -8.132946 -26.238173 5.673997 -0.000006 0.000001 495.337449 -498.010512 51.094350 -0.000010 -0.000011 -12.238689 387.083814 -21.452200 1.797474 0.000012 -0.000007 -10.253712 373.980014 0.606268 -29.181830 -2.882605 -1.580093 6.695797 -13.615611 -6.340010 -9.618747 -4.235607 0.000004 0.000007 -1610.941534 181.842052 -445.285932 0.000013 0.000004 -10.709908 423.079457 -134.076805 33.677556 -0.000006 -0.000016 -11.716802 -579.723726 -10.550815 -47.309230 2.279505 0.210407 -2.475493 461.082302 -46.988952 61.609631 -0.000002 -0.000015 -20.742809 -679.456181 198.651776 -19.028250 -0.000003 -0.000013 -16.666002 811.199493 28.007061 57.210307 -1.961885 0.232298 -2.727395 -873.561032 -19.722704 -97.705487 0.000004 -0.000001 -20.526802 704.575322 151.155215 -278.504679 -0.000006 0.000002 -16.867296 -18.295953 36.649832 -18.168696
74.088806 -26.051201 18.509497 2136.268322 -0.538142 18.393226 -0.637404 0.831599 5.390102 -8.124687 4.012234 -5.993069 -0.000006 0.000005 4.429902 4.647735 -5.850759 -0.517049 0.000002 -0.000002 10.301400 316.689835 3.900677 0.961764 -0.000003 -0.000004 2.173900 -361.501313 -2.072420 -5.163888 2.142406 -0.572700 5.717804 1.862545 -7.954292 -26.038940 5.674002 -0.000003 0.000005 495.000529 -497.893743 50.673197 -0.000001 -0.000006 -12.238695 387.086901 -21.403960 1.880901 0.000008 -0.000013 -10.253706 373.846497 0.506810 -29.270482 -2.882592 -1.580091 6.695796 -13.740703 -6.377005 -9.565372 -4.235596 0.000003 -0.000002 -1610.724279 181.883293 -445.306969 0.000002 0.000010 -10.709908 422.841985 -133.814689 33.421690 -0.000008 -0.000010 -11.716800 -580.100315 -10.534220 -47.525354 2.279491 0.210406 -2.475502 460.909361 -46.911061 61.558958 -0.000004 -0.000000 -20.742800 -679.459186 198.626491 -19.085343 -0.000004 0.000002 -16.666002 811.104143 28.020088 57.195171 -1.961907 0.232302 -2.727398 -873.595948 -19.794995 -97.698370 0.000004 -0.000001 -20.526802 704.503414 150.902224 -278.397718 0.000001 0.000000 -16.867298 -18.087816 36.758483 -18.011728
